<svg clip-rule="evenodd" fill-rule="evenodd" width="1300mm" height="500mm" image-rendering="optimizeQuality" shape-rendering="geometricPrecision" text-rendering="geometricPrecision" viewBox="0 0 130000 50000" xmlns="http://www.w3.org/2000/svg"><path d="m0 0h130000v50000h-130000z"/><g fill="none" stroke="#b3b3b3" stroke-dasharray="600 1500" stroke-width="300">	<path d="m10000 15000h110000"/>	<path d="m10000 22500h110000"/>	<path d="m10000 30000h110000"/>	<path d="m10000 37500h110000"/>	<path d="m10000 45000h110000"/></g><path d="m9247 44783h1506v434h-1506z" fill="#ff1414"/><path d="m9247 29783h1506v434h-1506z" fill="#ff1414"/><path d="m9247 14783h1506v434h-1506z" fill="#ff1414"/><text fill="#73f585" font-family="Arial" font-size="3446" font-weight="bold" x="1400" y="46239">13.0</text><text fill="#73f585" font-family="Arial" font-size="3446" font-weight="bold" x="1400" y="31239">17.5</text><text fill="#73f585" font-family="Arial" font-size="3446" font-weight="bold" x="1400" y="16218">22.0</text><text fill="#73f585" font-family="Arial" font-size="3446" font-weight="bold" x="3000" y="8734">°C</text><text fill="#73f585" font-family="Arial" font-size="2863" font-weight="bold" x="26737" y="49200">So</text><text fill="#73f585" font-family="Arial" font-size="2863" font-weight="bold" x="47568" y="49200">Ne</text><text fill="#73f585" font-family="Arial" font-size="2863" font-weight="bold" x="68398" y="49200">Po</text><text fill="#73f585" font-family="Arial" font-size="2863" font-weight="bold" x="89229" y="49200">Út</text><text fill="#73f585" font-family="Arial" font-size="2863" font-weight="bold" x="110152" y="49200">St</text><path d="m28333 42333 20831 2000 20830-6000 20831-9334 20923-11333" fill="none" stroke="#fc0" stroke-width="500"/><circle cx="28333" cy="42333" fill="#f00" r="855"/><circle cx="49164" cy="44333" fill="#f00" r="855"/><circle cx="69994" cy="38333" fill="#f00" r="855"/><circle cx="90825" cy="28999" fill="#f00" r="855"/><circle cx="111748" cy="17666" fill="#f00" r="855"/><text fill="#73f585" font-family="Arial" font-size="1689" font-weight="bold" x="21237" y="12503">cloudy</text><text fill="#73f585" font-family="Arial" font-size="1689" font-weight="bold" x="42068" y="12503">partly_sunny</text><text fill="#73f585" font-family="Arial" font-size="1689" font-weight="bold" x="62898" y="12503">partly_sunny</text><text fill="#73f585" font-family="Arial" font-size="1689" font-weight="bold" x="83729" y="12503">partly_sunny</text><text fill="#73f585" font-family="Arial" font-size="1689" font-weight="bold" x="104652" y="12503">partly_sunny</text>	<path d="m25601 6534c672-399 1388-319 2105 222l-254 338c-588-444-1119-503-1636-197-522 309-744 783-676 1460l20 197-196 32c-326 54-537 156-642 296-235 309-304 735-97 1029 171 241 444 383 834 422l-42 420c-506-51-890-250-1136-599-331-467-230-1086 104-1527 153-203 396-340 722-420-22-741 278-1309 894-1674z" fill="#b3b3b3"/>
	<path d="m30435 8794 282-46c30-1 60-2 90-2 810 0 1467 661 1467 1478 0 769-583 1400-1327 1471l-4051 7c-623-41-1118-592-1118-1267 0-650 459-1186 1050-1258-1-32-2-64-2-95 0-1003 813-1816 1816-1816 759 0 1438 472 1702 1184z" fill="#b3b3b3"/>
	<path d="m30906 11276c533-51 945-505 945-1051 0-584-468-1056-1044-1056-91 0-179 12-265 34l-450 119-74-460c-108-677-692-1174-1376-1174-770 0-1394 623-1394 1393 0 25 1 51 2 75l20 393-390 48c-379 46-679 403-679 839 0 454 323 819 721 843l22 2h3913z" fill="#fefefe"/>
	<path d="m25996 3758c638-647 1745-631 2394-77 235 201 414 453 535 755l-392 157c-96-239-235-435-417-591-488-417-1345-429-1820 52-357 362-502 786-442 1288l26 214-214 22c-492 49-757 272-842 698-28 145-28 278-1 396l-411 95c-41-178-42-371-2-574 109-549 457-891 1010-1005-16-546 178-1027 576-1430z" fill="#b3b3b3"/>
	<g fill="#f76b1c">
		<path d="m29721 5661v-889h422v889z"/>
		<path d="m31268 6102 622-622 299 298-622 622z"/>
		<path d="m32014 7523h964v422h-964z"/>
		<path d="m28274 6373-553-553 298-299 553 553z"/>
		<path d="m28613 6603c320-320 756-501 1211-501 945 0 1712 767 1712 1713 0 127-14 254-42 378l-412-93c21-93 32-189 32-285 0-713-578-1291-1290-1291-343 0-671 136-913 378z"/>
	</g>	<path d="m49181 7693 282-46c30-2 60-3 90-3 811 0 1469 663 1469 1480 0 770-584 1403-1329 1474l-4056 6c-624-41-1119-593-1119-1268 0-651 460-1188 1052-1260-2-31-3-63-3-95 0-1004 815-1818 1819-1818 759 0 1439 473 1704 1185z" fill="#b3b3b3"/>
	<path d="m49653 10178c533-51 946-506 946-1053 0-584-469-1057-1046-1057-90 0-179 12-265 34l-451 119-74-460c-108-677-692-1176-1378-1176-770 0-1395 625-1395 1395 0 25 1 51 2 76l20 393-391 48c-380 46-680 403-680 840 0 454 324 819 722 844l22 1h3918z" fill="#fefefe"/>
	<g fill="#f76b1c">
		<path d="m50558 5299v-890h423v890z"/>
		<path d="m52107 5741 623-623 299 299-623 623z"/>
		<path d="m52853 7163h965v423h-965z"/>
		<path d="m52403 8698 561 561-298 299-562-561z"/>
		<path d="m49109 6012-554-554 299-299 554 554z"/>
		<path d="m49463 6287c320-314 751-490 1200-490 947 0 1715 768 1715 1715 0 449-176 880-490 1200l-299-299c249-243 390-577 390-925 0-713-579-1292-1292-1292-348 0-682 141-925 390z"/>
	</g>	<path d="m70009 7686 282-45c30-2 60-3 90-3 811 0 1469 663 1469 1480 0 770-584 1402-1329 1473l-4056 7c-624-41-1119-593-1119-1269 0-651 460-1187 1052-1260-2-31-3-63-3-94 0-1004 814-1818 1818-1818 760 0 1440 473 1705 1185z" fill="#b3b3b3"/>
	<path d="m70481 10172c533-51 946-506 946-1053 0-584-469-1057-1046-1057-91 0-179 12-265 34l-451 119-74-461c-108-677-692-1175-1378-1175-770 0-1395 625-1395 1395 0 25 1 50 2 75l20 393-391 48c-380 47-680 404-680 841 0 454 324 819 722 844l22 1h3918z" fill="#fefefe"/>
	<g fill="#f76b1c">
		<path d="m71386 5293v-890h422v890z"/>
		<path d="m72935 5734 623-623 299 299-623 623z"/>
		<path d="m73681 7157h965v423h-965z"/>
		<path d="m73231 8692 561 561-299 299-561-561z"/>
		<path d="m69937 6006-554-554 299-299 553 554z"/>
		<path d="m70291 6281c320-314 751-490 1200-490 947 0 1715 768 1715 1715 0 449-176 880-490 1200l-299-299c249-243 390-577 390-925 0-713-579-1292-1292-1292-348 0-682 141-925 390z"/>
	</g>	<path d="m90837 7687 282-45c30-2 60-3 90-3 811 0 1469 662 1469 1480 0 769-584 1402-1329 1473l-4056 7c-624-41-1119-593-1119-1269 0-651 460-1187 1052-1260-2-31-2-63-2-94 0-1004 814-1818 1818-1818 759 0 1439 472 1704 1184z" fill="#b3b3b3"/>
	<path d="m91309 10172c533-51 946-505 946-1052 0-585-469-1057-1046-1057-90 0-179 11-265 34l-451 119-74-461c-108-677-692-1176-1378-1176-770 0-1395 625-1395 1396 0 25 1 50 2 75l20 393-390 48c-380 46-681 404-681 840 0 455 324 820 723 845l21 1h3919z" fill="#fefefe"/>
	<g fill="#f76b1c">
		<path d="m92214 5294v-890h423v890z"/>
		<path d="m93763 5735 623-623 299 299-623 623z"/>
		<path d="m94510 7158h964v423h-964z"/>
		<path d="m94059 8692 562 562-299 299-562-562z"/>
		<path d="m90765 6006-554-553 299-299 554 553z"/>
		<path d="m91119 6281c320-313 752-489 1200-489 947 0 1715 767 1715 1715 0 448-176 879-490 1200l-299-299c250-243 390-577 390-925 0-714-578-1292-1292-1292-348 0-682 140-925 389z"/>
	</g>	<path d="m111760 7687 283-45c29-2 59-3 89-3 811 0 1469 663 1469 1480 0 770-584 1402-1329 1473l-4056 7c-624-41-1118-593-1118-1269 0-651 459-1187 1051-1260-1-31-2-63-2-94 0-1004 814-1818 1818-1818 759 0 1439 473 1704 1185z" fill="#b3b3b3"/>
	<path d="m112232 10172c533-50 946-505 946-1052 0-585-469-1057-1046-1057-90 0-179 12-265 34l-451 119-74-461c-108-677-692-1175-1378-1175-770 0-1395 624-1395 1395 0 25 1 50 2 75l20 393-390 48c-380 46-681 404-681 840 0 455 325 820 723 845l21 1h3919z" fill="#fefefe"/>
	<g fill="#f76b1c">
		<path d="m113137 5294v-890h423v890z"/>
		<path d="m114686 5735 623-623 299 299-623 623z"/>
		<path d="m115433 7158h965v423h-965z"/>
		<path d="m114982 8693 562 561-299 299-562-562z"/>
		<path d="m111688 6006-554-553 299-299 554 554-299 299z"/>
		<path d="m112042 6282c321-314 752-490 1200-490 947 0 1715 768 1715 1715 0 448-176 880-490 1200l-299-299c250-243 390-577 390-925 0-714-578-1292-1292-1292-348 0-682 140-925 390z"/>
	</g></svg>