<svg clip-rule="evenodd" fill-rule="evenodd" width="1300mm" height="500mm" image-rendering="optimizeQuality" shape-rendering="geometricPrecision" text-rendering="geometricPrecision" viewBox="0 0 130000 50000" xmlns="http://www.w3.org/2000/svg"><path d="m0 0h130000v50000h-130000z"/><g fill="none" stroke="#b3b3b3" stroke-dasharray="600 1500" stroke-width="300">	<path d="m10000 15000h110000"/>	<path d="m10000 22500h110000"/>	<path d="m10000 30000h110000"/>	<path d="m10000 37500h110000"/>	<path d="m10000 45000h110000"/></g><path d="m9247 44783h1506v434h-1506z" fill="#ff1414"/><path d="m9247 29783h1506v434h-1506z" fill="#ff1414"/><path d="m9247 14783h1506v434h-1506z" fill="#ff1414"/><text fill="#73f585" font-family="Arial" font-size="3446.26" font-weight="bold" x="1400" y="46239">17.0</text><text fill="#73f585" font-family="Arial" font-size="3446.26" font-weight="bold" x="1400" y="31239">18.0</text><text fill="#73f585" font-family="Arial" font-size="3446.26" font-weight="bold" x="1400" y="16218">19.0</text><text fill="#73f585" font-family="Arial" font-size="3446.26" font-weight="bold" x="3000" y="8734">°C</text><text fill="#73f585" font-family="Arial" font-size="2863" font-weight="bold" x="26737" y="49200">Út</text><text fill="#73f585" font-family="Arial" font-size="2863" font-weight="bold" x="47568" y="49200">St</text><text fill="#73f585" font-family="Arial" font-size="2863" font-weight="bold" x="68398" y="49200">Čt</text><text fill="#73f585" font-family="Arial" font-size="2863" font-weight="bold" x="89229" y="49200">Pá</text><text fill="#73f585" font-family="Arial" font-size="2863" font-weight="bold" x="110152" y="49200">So</text><path d="m28333 30000 20831 2999 20830-10499 20831 4500 20923 3000" fill="none" stroke="#fc0" stroke-width="500"/><circle cx="28333" cy="30000" fill="#f00" r="855"/><circle cx="49164" cy="32999" fill="#f00" r="855"/><circle cx="69994" cy="22500" fill="#f00" r="855"/><circle cx="90825" cy="27000" fill="#f00" r="855"/><circle cx="111748" cy="30000" fill="#f00" r="855"/><text fill="#73f585" font-family="Arial" font-size="1689" font-weight="bold" x="21237" y="12503">cloudy</text><text fill="#73f585" font-family="Arial" font-size="1689" font-weight="bold" x="42068" y="12503">partly_sunny</text><text fill="#73f585" font-family="Arial" font-size="1689" font-weight="bold" x="62898" y="12503">mostly_cloudy</text><text fill="#73f585" font-family="Arial" font-size="1689" font-weight="bold" x="83729" y="12503">psbl_rain</text><text fill="#73f585" font-family="Arial" font-size="1689" font-weight="bold" x="104652" y="12503">light_rain</text></svg>