<svg clip-rule="evenodd" fill-rule="evenodd" width="1300mm" height="500mm" image-rendering="optimizeQuality" shape-rendering="geometricPrecision" text-rendering="geometricPrecision" viewBox="0 0 130000 50000" xmlns="http://www.w3.org/2000/svg"><path d="m0 0h130000v50000h-130000z"/><g fill="none" stroke="#b3b3b3" stroke-dasharray="600 1500" stroke-width="300">	<path d="m10000 15000h110000"/>	<path d="m10000 22500h110000"/>	<path d="m10000 30000h110000"/>	<path d="m10000 37500h110000"/>	<path d="m10000 45000h110000"/></g><path d="m9247 44783h1506v434h-1506z" fill="#ff1414"/><path d="m9247 29783h1506v434h-1506z" fill="#ff1414"/><path d="m9247 14783h1506v434h-1506z" fill="#ff1414"/><text fill="#73f585" font-family="Arial" font-size="3446" font-weight="bold" x="1400" y="46239">17.0</text><text fill="#73f585" font-family="Arial" font-size="3446" font-weight="bold" x="1400" y="31239">18.0</text><text fill="#73f585" font-family="Arial" font-size="3446" font-weight="bold" x="1400" y="16218">19.0</text><text fill="#73f585" font-family="Arial" font-size="3446" font-weight="bold" x="3000" y="8734">°C</text><text fill="#73f585" font-family="Arial" font-size="2863" font-weight="bold" x="26737" y="49200">So</text><text fill="#73f585" font-family="Arial" font-size="2863" font-weight="bold" x="47568" y="49200">Ne</text><text fill="#73f585" font-family="Arial" font-size="2863" font-weight="bold" x="68398" y="49200">Po</text><text fill="#73f585" font-family="Arial" font-size="2863" font-weight="bold" x="89229" y="49200">Út</text><text fill="#73f585" font-family="Arial" font-size="2863" font-weight="bold" x="110152" y="49200">St</text><path d="m28333 17999 20831 24001 20830 0 20831-15000 20923 5999" fill="none" stroke="#fc0" stroke-width="500"/><circle cx="28333" cy="17999" fill="#f00" r="855"/><circle cx="49164" cy="42000" fill="#f00" r="855"/><circle cx="69994" cy="42000" fill="#f00" r="855"/><circle cx="90825" cy="27000" fill="#f00" r="855"/><circle cx="111748" cy="32999" fill="#f00" r="855"/><text fill="#73f585" font-family="Arial" font-size="1689" font-weight="bold" x="21237" y="12503">psbl_rain</text><text fill="#73f585" font-family="Arial" font-size="1689" font-weight="bold" x="42068" y="12503">psbl_rain</text><text fill="#73f585" font-family="Arial" font-size="1689" font-weight="bold" x="62898" y="12503">mostly_cloudy</text><text fill="#73f585" font-family="Arial" font-size="1689" font-weight="bold" x="83729" y="12503">mostly_cloudy</text><text fill="#73f585" font-family="Arial" font-size="1689" font-weight="bold" x="104652" y="12503">partly_sunny</text>	<g fill="none" stroke-width="500">
		<path d="m27212 9830h-1764c-1087 0-1959-728-1722-1923 158-796 683-1239 1574-1328-104-868 152-1615 768-2239 924-937 2444-768 3228-98 523 446 840 1082 953 1907 811-331 1525-224 2141 324 925 821 626 2251 100 2748-525 498-786 609-1805 609" stroke="#b3b3b3"/>
		<path d="m29024 11290c268 0 486-217 486-485 0-179-162-502-486-971-323 469-485 792-485 971 0 268 217 485 485 485z" stroke="#4776e2"/>
	</g>	<g fill="none" stroke-width="500">
		<path d="m48037 9841h-1764c-1088 0-1959-728-1722-1922 158-797 682-1240 1574-1329-104-868 152-1615 767-2239 924-936 2444-768 3229-98 522 446 840 1082 952 1908 811-332 1525-225 2142 323 925 821 625 2251 100 2748-525 498-787 609-1805 609" stroke="#b3b3b3"/>
		<path d="m49849 11301c268 0 485-217 485-485 0-179-161-502-485-971-323 469-485 792-485 971 0 268 217 485 485 485z" stroke="#4776e2"/>
	</g>	<path d="m71706 8179 268-44c29-2 57-2 86-2 772 0 1397 630 1397 1408 0 732-555 1334-1264 1401l-3859 7c-593-39-1064-565-1064-1207 0-620 437-1130 1000-1199-1-29-2-60-2-90 0-955 774-1730 1730-1730 722 0 1369 450 1621 1128z" fill="#b3b3b3"/>
	<path d="m72155 10543c507-48 900-481 900-1001 0-556-446-1006-995-1006-86 0-171 11-252 32l-429 114-71-439c-102-644-658-1118-1311-1118-733 0-1327 594-1327 1327 0 24 1 48 2 72l19 374-372 45c-361 44-647 384-647 800 0 432 308 780 687 803l21 1h3728z" fill="#fefefe"/>
	<path d="m67177 5947c641-379 1322-303 2006 213l-243 321c-559-422-1066-479-1558-187-497 294-708 746-644 1390l19 188-186 31c-311 51-512 148-612 281-224 295-290 701-92 981 163 230 422 364 794 401l-40 401c-482-49-848-238-1083-570-315-446-219-1035 100-1456 145-192 377-323 688-399-22-706 264-1247 851-1595z" fill="#b3b3b3"/>
	<g fill="#f76b1c">
		<path d="m71543 4890v-847h402v847z"/>
		<path d="m73017 5310 592-593 285 284-593 593z"/>
		<path d="m73727 6663h918v403h-918z"/>
		<path d="m70164 5568-527-527 285-285 527 527z"/>
		<path d="m70510 5870c306-305 721-477 1154-477 901 0 1631 730 1631 1631 0 122-13 243-40 361l-393-89c21-89 31-180 31-272 0-678-550-1229-1229-1229-326 0-639 130-870 360z"/>
	</g>	<path d="m92538 8181 269-43c28-2 57-3 85-3 772 0 1398 631 1398 1408 0 733-555 1335-1264 1402l-3859 6c-594-38-1065-564-1065-1206 0-620 437-1130 1001-1199-2-30-3-60-3-90 0-955 775-1730 1730-1730 723 0 1370 450 1622 1127z" fill="#b3b3b3"/>
	<path d="m92987 10546c508-49 900-481 900-1002 0-556-446-1005-995-1005-86 0-170 11-252 32l-429 113-70-438c-103-644-659-1119-1311-1119-733 0-1328 595-1328 1328 0 24 1 48 2 72l19 374-371 45c-362 44-647 384-647 800 0 432 308 779 687 803l20 1h3728z" fill="#fefefe"/>
	<path d="m88009 5950c641-379 1323-303 2006 213l-242 321c-560-422-1066-479-1558-188-497 295-709 746-644 1391l19 188-187 30c-310 51-511 149-612 282-223 295-289 701-92 980 163 231 423 365 795 402l-41 400c-481-48-847-238-1082-570-315-445-219-1035 99-1455 146-193 377-323 688-399-21-707 265-1247 851-1595z" fill="#b3b3b3"/>
	<g fill="#f76b1c">
		<path d="m92375 4893v-847h403v847z"/>
		<path d="m93849 5313 593-593 284 284-593 593z"/>
		<path d="m94560 6666h917v402h-917z"/>
		<path d="m90997 5571-527-527 284-285 527 527-284 284z"/>
		<path d="m91343 5873c305-306 721-478 1153-478 901 0 1632 731 1632 1632 0 121-14 243-40 361l-393-89c20-89 31-180 31-272 0-679-551-1229-1230-1229-326 0-639 130-869 360z"/>
	</g>	<path d="m111760 7687 283-45c29-2 59-3 89-3 811 0 1469 663 1469 1480 0 770-584 1402-1329 1473l-4056 7c-624-41-1118-593-1118-1269 0-651 459-1187 1051-1260-1-31-2-63-2-94 0-1004 814-1818 1818-1818 759 0 1439 473 1704 1185z" fill="#b3b3b3"/>
	<path d="m112232 10172c533-50 946-505 946-1052 0-585-469-1057-1046-1057-90 0-179 12-265 34l-451 119-74-461c-108-677-692-1175-1378-1175-770 0-1395 624-1395 1395 0 25 1 50 2 75l20 393-390 48c-380 46-681 404-681 840 0 455 325 820 723 845l21 1h3919z" fill="#fefefe"/>
	<g fill="#f76b1c">
		<path d="m113137 5294v-890h423v890z"/>
		<path d="m114686 5735 623-623 299 299-623 623z"/>
		<path d="m115433 7158h965v423h-965z"/>
		<path d="m114982 8693 562 561-299 299-562-562z"/>
		<path d="m111688 6006-554-553 299-299 554 554-299 299z"/>
		<path d="m112042 6282c321-314 752-490 1200-490 947 0 1715 768 1715 1715 0 448-176 880-490 1200l-299-299c250-243 390-577 390-925 0-714-578-1292-1292-1292-348 0-682 140-925 390z"/>
	</g></svg>