<svg clip-rule="evenodd" fill-rule="evenodd" width="1300mm" height="500mm" image-rendering="optimizeQuality" shape-rendering="geometricPrecision" text-rendering="geometricPrecision" viewBox="0 0 130000 50000" xmlns="http://www.w3.org/2000/svg"><path d="m0 0h130000v50000h-130000z"/><g fill="none" stroke="#b3b3b3" stroke-dasharray="600 1500" stroke-width="300">	<path d="m10000 15000h110000"/>	<path d="m10000 22500h110000"/>	<path d="m10000 30000h110000"/>	<path d="m10000 37500h110000"/>	<path d="m10000 45000h110000"/></g><path d="m9247 44783h1506v434h-1506z" fill="#ff1414"/><path d="m9247 29783h1506v434h-1506z" fill="#ff1414"/><path d="m9247 14783h1506v434h-1506z" fill="#ff1414"/><text fill="#73f585" font-family="Arial" font-size="3446.26" font-weight="bold" x="1400" y="46239">16.0</text><text fill="#73f585" font-family="Arial" font-size="3446.26" font-weight="bold" x="1400" y="31239">17.5</text><text fill="#73f585" font-family="Arial" font-size="3446.26" font-weight="bold" x="1400" y="16218">19.0</text><text fill="#73f585" font-family="Arial" font-size="3446.26" font-weight="bold" x="3000" y="8734">°C</text><path d="m28333 23000 20831 12000 20830-2000 20831 0 20923 3999" fill="none" stroke="#fc0" stroke-width="500"/><circle cx="28333" cy="23000" fill="#f00" r="855"/><circle cx="49164" cy="35000" fill="#f00" r="855"/><circle cx="69994" cy="33000" fill="#f00" r="855"/><circle cx="90825" cy="33000" fill="#f00" r="855"/><circle cx="111748" cy="36999" fill="#f00" r="855"/>


	<g fill-rule="nonzero">
		<path d="m52174 7770v-540h1622v540z" fill="#f76b1c" />
		<path d="m44513 7740v-539h1368v539z" fill="#f76b1c" />
		<path d="m51239 9927 382-381 936 936-381 382z" fill="#f76b1c" />
		<path d="m51239 4997 937-937 381 381-936 937z" fill="#f76b1c" />
		<path d="m47071 9927-936 937-382-382 937-936z" fill="#f76b1c" />
		<path d="m47071 4997-381 381-937-937 382-381z" fill="#f76b1c" />
		<path d="m48894 10736h540v1273h-540z" fill="#f76b1c" />
		<path d="m48894 2939h540v1367h-540z" fill="#f76b1c" />
	</g>
	<circle cx="49164" cy="7500" fill="#f76b1c" r="2523"/>
</svg>